HIERARCHY
ROOT hip
{
	OFFSET 0.000000 0.000000 0.000000
	CHANNELS 6 Xposition Yposition Zposition Xrotation Zrotation Yrotation 
	JOINT abdomen
	{
		OFFSET 0.000000 3.422050 0.000000
		CHANNELS 3 Xrotation Zrotation Yrotation 
		JOINT chest
		{
			OFFSET 0.000000 8.486693 -0.684411
			CHANNELS 3 Xrotation Zrotation Yrotation 
			JOINT neck
			{
				OFFSET 0.000000 10.266162 -0.273764
				CHANNELS 3 Xrotation Zrotation Yrotation 
				JOINT head
				{
					OFFSET 0.000000 3.148285 0.000000
					CHANNELS 3 Xrotation Zrotation Yrotation 
					End Site
					{
						OFFSET 0.000000 3.148289 0.000000
					}
				}
			}
			JOINT lCollar
			{
				OFFSET 3.422053 6.707223 -0.821293
				CHANNELS 3 Yrotation Zrotation Xrotation 
				JOINT lShldr
				{
					OFFSET 3.285171 0.000000 0.000000
					CHANNELS 3 Zrotation Yrotation Xrotation 
					JOINT lForeArm
					{
						OFFSET 10.129278 0.000000 0.000000
						CHANNELS 3 Yrotation Zrotation Xrotation 
						JOINT lHand
						{
							OFFSET 8.486692 0.000000 0.000000
							CHANNELS 3 Zrotation Yrotation Xrotation 
							End Site
							{
								OFFSET 4.106464 0.000000 0.000000
							}
						}
					}
				}
			}
			JOINT rCollar
			{
				OFFSET -3.558935 6.707223 -0.821293
				CHANNELS 3 Yrotation Zrotation Xrotation 
				JOINT rShldr
				{
					OFFSET -3.148289 0.000000 0.000000
					CHANNELS 3 Zrotation Yrotation Xrotation 
					JOINT rForeArm
					{
						OFFSET -10.266159 0.000000 0.000000
						CHANNELS 3 Yrotation Zrotation Xrotation 
						JOINT rHand
						{
							OFFSET -8.349810 0.000000 0.000000
							CHANNELS 3 Zrotation Yrotation Xrotation 
							End Site
							{
								OFFSET -4.106464 0.000000 0.000000
							}
						}
					}
				}
			}
		}
	}
	JOINT lThigh
	{
		OFFSET 5.338403 -1.642589 1.368821
		CHANNELS 3 Xrotation Zrotation Yrotation 
		JOINT lShin
		{
			OFFSET -2.053232 -20.121670 0.000000
			CHANNELS 3 Xrotation Zrotation Yrotation 
			JOINT lFoot
			{
				OFFSET 0.000000 -19.300380 -1.231939
				CHANNELS 3 Xrotation Yrotation Zrotation 
				End Site
				{
					OFFSET 0.000000 -2.463878 4.653993
				}
			}
		}
	}
	JOINT rThigh
	{
		OFFSET -5.338403 -1.642589 1.368821
		CHANNELS 3 Xrotation Zrotation Yrotation 
		JOINT rShin
		{
			OFFSET 2.053232 -20.121670 0.000000
			CHANNELS 3 Xrotation Zrotation Yrotation 
			JOINT rFoot
			{
				OFFSET 0.000000 -19.300380 -1.231939
				CHANNELS 3 Xrotation Yrotation Zrotation 
				End Site
				{
					OFFSET 0.000000 -2.463878 4.653993
				}
			}
		}
	}
}
MOTION
Frames: 8
Frame Time: 0.033302
0.000000 43.528500 0.000000 0.000000 0.000000 0.000000 0.000000 0.000000 0.000000 0.000000 0.000000 0.000000 0.000000 0.000000 0.000000 0.000000 0.000000 0.000000 0.000000 0.000000 0.000000 0.000000 0.000000 0.000000 0.000000 0.000000 0.000000 0.000000 0.000000 0.000000 0.000000 0.000000 0.000000 0.000000 0.000000 0.000000 0.000000 0.000000 0.000000 0.000000 0.000000 0.000000 0.000000 0.000000 0.000000 0.000000 0.000000 0.000000 0.000000 0.000000 0.000000 0.000000 0.000000 0.000000 0.000000 0.000000 0.000000 0.000000 0.000000 0.000000 
7.998946 11.998247 7.998947 -33.000099 0.000000 0.000000 57.998005 0.000000 0.000000 19.998167 0.000000 0.000000 30.999151 0.000000 0.000000 0.274519 0.000415 -0.173104 0.000000 0.000000 0.000000 -75.999939 4.996779 0.000451 -81.003273 0.000000 0.000000 24.997551 0.000000 0.000000 16.997015 0.000000 0.000000 54.996658 25.001097 29.997122 51.996799 4.996027 0.998929 14.998928 19.996950 -9.003785 -32.001057 41.999001 -30.000582 140.994720 0.000000 0.000000 48.998291 -0.000680 -1.000834 -20.001320 -50.002739 30.000568 134.993393 -0.000002 0.000001 20.996786 0.000000 0.000000 
7.998946 12.228843 7.998947 -33.000095 0.000000 0.000000 57.997997 0.000000 0.000000 19.998167 0.000000 0.000000 30.999149 0.000000 0.000000 -2.019765 -0.002968 -0.168384 0.000000 0.000000 0.000000 -75.999939 4.996779 0.000451 -82.010826 0.000000 0.000000 24.325838 0.000000 0.000000 16.997015 0.000000 0.000000 53.024727 25.331247 30.048328 56.456791 4.773969 -0.934307 14.998926 19.996950 -9.003786 -31.157650 40.851097 -29.878096 140.533249 -0.000000 0.000000 48.998287 -0.000680 -1.000834 -20.001373 -48.775124 30.000448 134.993393 -0.000002 0.000001 20.996786 0.000000 0.000000 
7.998946 12.459438 7.998947 -33.000099 0.000000 0.000000 57.998005 0.000000 0.000000 19.998167 0.000000 0.000000 30.999151 0.000000 0.000000 -4.342789 -0.006198 -0.163470 0.000000 0.000000 0.000000 -75.999939 4.996779 0.000451 -83.023003 0.000000 0.000000 23.652817 0.000000 0.000000 16.997017 0.000000 0.000000 51.043331 25.663509 30.087099 60.920029 4.401466 -2.850026 14.998928 19.996950 -9.003785 -30.330339 39.700138 -29.779516 140.071686 -0.000000 0.000000 48.998291 -0.000680 -1.000834 -20.001440 -47.545948 30.000343 134.993393 -0.000002 0.000001 20.996786 0.000000 0.000000 
7.998946 12.690034 7.998947 -33.000099 0.000000 0.000000 57.997997 0.000000 0.000000 19.998167 0.000000 0.000000 30.999151 0.000000 0.000000 -6.693156 -0.009261 -0.158370 0.000000 0.000000 0.000000 -75.999939 4.996778 0.000451 -84.039627 0.000000 0.000000 22.978523 0.000000 0.000000 16.997015 0.000000 0.000000 49.053486 25.997318 30.113218 65.365776 3.881763 -4.729814 14.998928 19.996950 -9.003784 -29.517906 38.546688 -29.703697 139.610062 -0.000000 0.000000 48.998291 -0.000680 -1.000834 -20.001505 -46.315502 30.000233 134.993393 -0.000002 0.000001 20.996786 0.000000 0.000000 
7.998946 12.920630 7.998947 -33.000103 0.000000 0.000000 57.998005 0.000000 0.000000 19.998167 0.000000 0.000000 30.999151 0.000000 0.000000 -9.069339 -0.012142 -0.153090 0.000000 0.000000 0.000000 -75.999939 4.996779 0.000451 -85.060600 0.000000 0.000000 22.303015 0.000000 0.000000 16.997015 0.000000 0.000000 47.056225 26.332054 30.126465 69.774284 3.221126 -6.556286 14.998928 19.996952 -9.003785 -28.719252 37.391350 -29.649609 139.148392 -0.000000 0.000000 48.998291 -0.000680 -1.000834 -20.001566 -45.084045 30.000111 134.993393 -0.000002 0.000001 20.996788 0.000000 0.000000 
7.998946 13.151225 7.998947 -33.000099 0.000000 0.000000 57.998005 0.000000 0.000000 19.998167 0.000000 0.000000 30.999151 0.000000 0.000000 -11.469687 -0.014827 -0.147640 0.000000 0.000000 0.000000 -75.999931 4.996779 0.000451 -86.085793 0.000000 0.000000 21.626328 0.000000 0.000000 16.997015 0.000000 0.000000 45.052589 26.667114 30.126692 74.233444 2.998303 -8.488379 14.998926 19.996948 -9.003786 -27.933355 36.234688 -29.616291 138.686661 -0.000001 0.000000 48.998291 -0.000680 -1.000834 -20.001635 -43.851883 30.000002 134.993393 -0.000002 0.000001 20.996786 0.000000 0.000000 
7.998946 13.381821 7.998947 -33.000099 0.000000 0.000000 57.998005 0.000000 0.000000 19.998167 0.000000 0.000000 30.999155 0.000000 0.000000 -13.892437 -0.017304 -0.142030 0.000000 0.000000 0.000000 -75.999939 4.996779 0.000451 -87.115051 0.000000 0.000000 20.948505 0.000000 0.000000 16.997017 0.000000 0.000000 43.043663 27.001867 30.113779 78.696892 2.624777 -10.403392 14.998928 19.996950 -9.003785 -27.159233 35.077255 -29.602829 138.224930 -0.000001 0.000000 48.998291 -0.000680 -1.000834 -20.001699 -42.619289 29.999882 134.993393 -0.000002 0.000001 20.996788 0.000000 0.000000 
